<svg width="48" height="48" viewBox="0 0 48 48" fill="none" xmlns="http://www.w3.org/2000/svg">
<path fill-rule="evenodd" clip-rule="evenodd" d="M24 48C37.2548 48 48 37.2548 48 24C48 10.7452 37.2548 0 24 0C10.7452 0 0 10.7452 0 24C0 37.2548 10.7452 48 24 48Z" fill="#1E1A3E"/>
<path fill-rule="evenodd" clip-rule="evenodd" d="M17 25H28.17L24.29 28.88C23.9 29.27 23.9 29.91 24.29 30.3C24.68 30.69 25.31 30.69 25.7 30.3L31.29 24.71C31.68 24.32 31.68 23.69 31.29 23.3L25.71 17.7C25.32 17.31 24.69 17.31 24.3 17.7C23.91 18.09 23.91 18.72 24.3 19.11L28.17 23H17C16.45 23 16 23.45 16 24C16 24.55 16.45 25 17 25Z" fill="white"/>
</svg>
