<svg width="20" height="13"  fill="none" xmlns="http://www.w3.org/2000/svg" viewBox="0 0 20 16"><path fill-rule="evenodd" clip-rule="evenodd" d="M10.14 3.417c2.3 0 4.166 1.866 4.166 4.166 0 .425-.083.834-.2 1.217l2.55 2.55a9.834 9.834 0 0 0 2.65-3.775c-1.441-3.65-5-6.242-9.166-6.242a9.875 9.875 0 0 0-3.033.475l1.808 1.809c.392-.117.8-.2 1.225-.2ZM2.398.633a.83.83 0 0 0 0 1.175L4.04 3.45A9.91 9.91 0 0 0 .973 7.583c1.442 3.659 5 6.25 9.167 6.25 1.266 0 2.475-.25 3.591-.683l2.267 2.267a.83.83 0 1 0 1.175-1.175L3.582.633a.84.84 0 0 0-1.184 0ZM10.14 11.75a4.168 4.168 0 0 1-4.167-4.167c0-.641.15-1.25.409-1.783L7.69 7.108c-.025.15-.05.309-.05.475 0 1.384 1.117 2.5 2.5 2.5.166 0 .316-.025.475-.058l1.308 1.308a4.01 4.01 0 0 1-1.783.417Zm2.475-4.442a2.474 2.474 0 0 0-2.2-2.2l2.2 2.2Z" fill="#181C43"/></svg>
