<svg width="12" height="12" fill="none" xmlns="http://www.w3.org/2000/svg" viewBox="0 0 12 12"><path d="M6.14.167A5.84 5.84 0 0 0 .306 6a5.84 5.84 0 0 0 5.834 5.833A5.84 5.84 0 0 0 11.973 6 5.84 5.84 0 0 0 6.14.167Zm-.243 9.236a.73.73 0 1 1 0-1.46.73.73 0 0 1 0 1.46ZM7.992 5.09c-.15.24-.435.51-.856.81-.681.504-.663.616-.663 1.072H5.28c0-.356-.008-.63.185-.963.123-.213.348-.44.676-.68.393-.281.775-.552.775-1.024 0-.441-.378-.599-.82-.599-.45 0-.964.147-1.541.442l-.492-.987c1.049-.588 2.703-.853 3.608-.117.664.541.668 1.492.322 2.046Z" fill="#1E1A3E"/></svg>
